<svg width="1200" height="760" viewBox="0 0 1200 760" fill="none" xmlns="http://www.w3.org/2000/svg">
  <defs>
    <linearGradient id="progressBg" x1="80" y1="64" x2="1110" y2="696" gradientUnits="userSpaceOnUse">
      <stop stop-color="#FFFFFF"/>
      <stop offset="1" stop-color="#F0F4FF"/>
    </linearGradient>
    <linearGradient id="lineBlue" x1="224" y1="460" x2="920" y2="254" gradientUnits="userSpaceOnUse">
      <stop stop-color="#121212"/>
      <stop offset="1" stop-color="#426CFF"/>
    </linearGradient>
  </defs>
  <rect width="1200" height="760" rx="84" fill="#F7F5EF"/>
  <rect x="64" y="56" width="1072" height="648" rx="56" fill="url(#progressBg)" stroke="#E5E7EB" stroke-width="2"/>
  <rect x="108" y="104" width="148" height="44" rx="22" fill="#111111"/>
  <text x="182" y="132" text-anchor="middle" fill="#FFFFFF" font-family="Arial, sans-serif" font-size="16" font-weight="700">Mesociclo</text>
  <text x="108" y="196" fill="#111111" font-family="Arial, sans-serif" font-size="54" font-weight="700">Progresión productiva</text>
  <text x="108" y="236" fill="#666D7B" font-family="Arial, sans-serif" font-size="24">Cuatro rotaciones con margen real, pico útil y consolidación.</text>
  <rect x="108" y="284" width="170" height="118" rx="34" fill="#FFFFFF" stroke="#E5E7EB" stroke-width="2"/>
  <text x="144" y="328" fill="#666D7B" font-family="Arial, sans-serif" font-size="18">Split sugerido</text>
  <text x="144" y="370" fill="#111111" font-family="Arial, sans-serif" font-size="32" font-weight="700">4 días</text>
  <rect x="296" y="284" width="170" height="118" rx="34" fill="#FFFFFF" stroke="#E5E7EB" stroke-width="2"/>
  <text x="332" y="328" fill="#666D7B" font-family="Arial, sans-serif" font-size="18">Sesiones</text>
  <text x="332" y="370" fill="#111111" font-family="Arial, sans-serif" font-size="32" font-weight="700">75-95 min</text>
  <rect x="484" y="284" width="170" height="118" rx="34" fill="#FFFFFF" stroke="#E5E7EB" stroke-width="2"/>
  <text x="520" y="328" fill="#666D7B" font-family="Arial, sans-serif" font-size="18">RIR</text>
  <text x="520" y="370" fill="#426CFF" font-family="Arial, sans-serif" font-size="32" font-weight="700">2 → 0</text>
  <rect x="118" y="452" width="964" height="196" rx="40" fill="#FFFFFF" stroke="#E5E7EB" stroke-width="2"/>
  <path d="M210 610H986" stroke="#E5E7EB" stroke-width="2"/>
  <path d="M210 560H986" stroke="#EEF2FF" stroke-width="2"/>
  <path d="M210 510H986" stroke="#EEF2FF" stroke-width="2"/>
  <path d="M210 460H986" stroke="#EEF2FF" stroke-width="2"/>
  <path d="M240 590C334 566 380 522 468 528C572 534 646 424 738 412C832 399 884 358 960 322" stroke="url(#lineBlue)" stroke-width="8" stroke-linecap="round"/>
  <circle cx="240" cy="590" r="14" fill="#FFFFFF" stroke="#111111" stroke-width="6"/>
  <circle cx="468" cy="528" r="14" fill="#FFFFFF" stroke="#426CFF" stroke-width="6"/>
  <circle cx="738" cy="412" r="14" fill="#FFFFFF" stroke="#426CFF" stroke-width="6"/>
  <circle cx="960" cy="322" r="14" fill="#FFFFFF" stroke="#111111" stroke-width="6"/>
  <text x="222" y="666" fill="#111111" font-family="Arial, sans-serif" font-size="18" font-weight="700">Rotación I</text>
  <text x="442" y="666" fill="#111111" font-family="Arial, sans-serif" font-size="18" font-weight="700">Rotación II</text>
  <text x="712" y="666" fill="#111111" font-family="Arial, sans-serif" font-size="18" font-weight="700">Rotación III</text>
  <text x="928" y="666" fill="#111111" font-family="Arial, sans-serif" font-size="18" font-weight="700">Rotación IV</text>
  <rect x="784" y="164" width="282" height="164" rx="34" fill="#111111"/>
  <text x="818" y="220" fill="#FFFFFF" font-family="Arial, sans-serif" font-size="18">Lectura del bloque</text>
  <text x="818" y="266" fill="#FFFFFF" font-family="Arial, sans-serif" font-size="30" font-weight="700">Más calidad que ruido</text>
  <text x="818" y="298" fill="#B8C5FF" font-family="Arial, sans-serif" font-size="17">Sube cuando toca. Consolida antes de apagar el rendimiento.</text>
</svg>
