<svg width="520" height="980" viewBox="0 0 520 980" fill="none" xmlns="http://www.w3.org/2000/svg">
  <rect x="20" y="20" width="480" height="940" rx="82" fill="#131313"/>
  <rect x="34" y="34" width="452" height="912" rx="68" fill="#F7F5EF"/>
  <rect x="176" y="54" width="168" height="32" rx="16" fill="#151515"/>
  <text x="88" y="134" fill="#151515" font-family="Arial, sans-serif" font-size="38" font-weight="700">MyCoach</text>
  <rect x="350" y="104" width="98" height="52" rx="26" fill="#FFFFFF" stroke="#E5E7EB" stroke-width="2"/>
  <circle cx="382" cy="130" r="10" fill="#426CFF"/>
  <text x="408" y="136" fill="#151515" font-family="Arial, sans-serif" font-size="18" font-weight="700">Plan</text>
  <g>
    <circle cx="86" cy="210" r="30" stroke="#CBD5E1" stroke-width="3" stroke-dasharray="8 8"/>
    <circle cx="154" cy="210" r="30" stroke="#CBD5E1" stroke-width="3" stroke-dasharray="8 8"/>
    <circle cx="222" cy="210" r="30" stroke="#CBD5E1" stroke-width="3" stroke-dasharray="8 8"/>
    <circle cx="290" cy="210" r="30" stroke="#CBD5E1" stroke-width="3" stroke-dasharray="8 8"/>
    <circle cx="358" cy="210" r="30" stroke="#151515" stroke-width="4" stroke-dasharray="8 8"/>
    <text x="78" y="218" fill="#151515" font-family="Arial, sans-serif" font-size="20" font-weight="700">L</text>
    <text x="146" y="218" fill="#151515" font-family="Arial, sans-serif" font-size="20" font-weight="700">M</text>
    <text x="214" y="218" fill="#151515" font-family="Arial, sans-serif" font-size="20" font-weight="700">X</text>
    <text x="282" y="218" fill="#151515" font-family="Arial, sans-serif" font-size="20" font-weight="700">J</text>
    <text x="351" y="218" fill="#151515" font-family="Arial, sans-serif" font-size="20" font-weight="700">V</text>
  </g>
  <rect x="64" y="276" width="392" height="210" rx="42" fill="#FFFFFF" stroke="#E5E7EB" stroke-width="2"/>
  <text x="100" y="356" fill="#151515" font-family="Arial, sans-serif" font-size="84" font-weight="700">4</text>
  <text x="100" y="398" fill="#666D7B" font-family="Arial, sans-serif" font-size="28">sesiones listas</text>
  <circle cx="364" cy="380" r="72" stroke="#EAEAF2" stroke-width="16"/>
  <path d="M364 308C396.667 308 424 335.333 424 368" stroke="#151515" stroke-width="16" stroke-linecap="round"/>
  <path d="M424 392C416 422 390 444 358 444" stroke="#426CFF" stroke-width="16" stroke-linecap="round"/>
  <rect x="64" y="514" width="120" height="170" rx="34" fill="#FFFFFF" stroke="#E5E7EB" stroke-width="2"/>
  <rect x="200" y="514" width="120" height="170" rx="34" fill="#FFFFFF" stroke="#E5E7EB" stroke-width="2"/>
  <rect x="336" y="514" width="120" height="170" rx="34" fill="#FFFFFF" stroke="#E5E7EB" stroke-width="2"/>
  <text x="86" y="566" fill="#151515" font-family="Arial, sans-serif" font-size="44" font-weight="700">8</text>
  <text x="86" y="604" fill="#666D7B" font-family="Arial, sans-serif" font-size="22">targets</text>
  <text x="222" y="566" fill="#151515" font-family="Arial, sans-serif" font-size="44" font-weight="700">3</text>
  <text x="222" y="604" fill="#666D7B" font-family="Arial, sans-serif" font-size="22">prioridades</text>
  <text x="358" y="566" fill="#151515" font-family="Arial, sans-serif" font-size="44" font-weight="700">XL</text>
  <text x="358" y="604" fill="#666D7B" font-family="Arial, sans-serif" font-size="22">excel</text>
  <rect x="64" y="726" width="392" height="126" rx="34" fill="#F8F8FC"/>
  <text x="96" y="784" fill="#151515" font-family="Arial, sans-serif" font-size="30" font-weight="700">Última acción</text>
  <text x="96" y="822" fill="#666D7B" font-family="Arial, sans-serif" font-size="24">Mesociclo exportado y listo para editar.</text>
  <rect x="76" y="884" width="62" height="62" rx="31" fill="#FFFFFF"/>
  <rect x="228" y="884" width="62" height="62" rx="31" fill="#FFFFFF"/>
  <rect x="380" y="864" width="76" height="76" rx="38" fill="#151515"/>
</svg>
