<svg width="520" height="980" viewBox="0 0 520 980" fill="none" xmlns="http://www.w3.org/2000/svg">
  <rect x="20" y="20" width="480" height="940" rx="82" fill="#131313"/>
  <rect x="34" y="34" width="452" height="912" rx="68" fill="#F7F5EF"/>
  <rect x="176" y="54" width="168" height="32" rx="16" fill="#151515"/>
  <circle cx="92" cy="120" r="30" fill="#FFFFFF" stroke="#E5E7EB" stroke-width="2"/>
  <path d="M102 120H82" stroke="#151515" stroke-width="4" stroke-linecap="round"/>
  <path d="M90 110L80 120L90 130" stroke="#151515" stroke-width="4" stroke-linecap="round" stroke-linejoin="round"/>
  <rect x="136" y="116" width="300" height="8" rx="4" fill="#E8E8ED"/>
  <rect x="136" y="116" width="112" height="8" rx="4" fill="#151515"/>
  <text x="68" y="212" fill="#151515" font-family="Arial, sans-serif" font-size="60" font-weight="700">Objetivo del bloque</text>
  <text x="68" y="260" fill="#666D7B" font-family="Arial, sans-serif" font-size="24">Solo preguntamos lo que cambia el mesociclo.</text>
  <rect x="62" y="334" width="396" height="120" rx="32" fill="#151515"/>
  <text x="94" y="392" fill="#FFFFFF" font-family="Arial, sans-serif" font-size="32" font-weight="700">Ganar masa con control</text>
  <text x="94" y="428" fill="#C7CFDF" font-family="Arial, sans-serif" font-size="22">Más calidad de estímulo, menos ruido.</text>
  <rect x="62" y="476" width="396" height="120" rx="32" fill="#FFFFFF" stroke="#E5E7EB" stroke-width="2"/>
  <text x="94" y="534" fill="#151515" font-family="Arial, sans-serif" font-size="32" font-weight="700">Mantener rendimiento híbrido</text>
  <text x="94" y="570" fill="#666D7B" font-family="Arial, sans-serif" font-size="22">Mezcla de fuerza, engine y trabajo útil.</text>
  <rect x="62" y="620" width="396" height="132" rx="32" fill="#EEF3FF"/>
  <text x="94" y="678" fill="#151515" font-family="Arial, sans-serif" font-size="30" font-weight="700">Adjunta rutina actual</text>
  <text x="94" y="714" fill="#666D7B" font-family="Arial, sans-serif" font-size="22">TXT, Excel, PDF o contexto escrito.</text>
  <rect x="52" y="840" width="416" height="82" rx="30" fill="#151515"/>
  <text x="260" y="892" text-anchor="middle" fill="#FFFFFF" font-family="Arial, sans-serif" font-size="30" font-weight="700">Continuar</text>
</svg>
