<svg width="520" height="980" viewBox="0 0 520 980" fill="none" xmlns="http://www.w3.org/2000/svg">
  <rect x="20" y="20" width="480" height="940" rx="82" fill="#131313"/>
  <rect x="34" y="34" width="452" height="912" rx="68" fill="#F7F5EF"/>
  <rect x="176" y="54" width="168" height="32" rx="16" fill="#151515"/>
  <text x="70" y="126" fill="#151515" font-family="Arial, sans-serif" font-size="40" font-weight="700">Mesociclo listo</text>
  <rect x="62" y="160" width="164" height="44" rx="22" fill="#151515"/>
  <text x="144" y="188" text-anchor="middle" fill="#FFFFFF" font-family="Arial, sans-serif" font-size="18" font-weight="700">Torso 4 días</text>
  <rect x="244" y="160" width="138" height="44" rx="22" fill="#FFFFFF" stroke="#E5E7EB" stroke-width="2"/>
  <text x="313" y="188" text-anchor="middle" fill="#151515" font-family="Arial, sans-serif" font-size="18" font-weight="700">Excel editable</text>
  <rect x="62" y="232" width="180" height="182" rx="38" fill="#FFFFFF" stroke="#E5E7EB" stroke-width="2"/>
  <rect x="260" y="232" width="198" height="182" rx="38" fill="#FFFFFF" stroke="#E5E7EB" stroke-width="2"/>
  <circle cx="152" cy="322" r="58" stroke="#ECEEF4" stroke-width="16"/>
  <path d="M152 264C183.48 264 210 290.52 210 322" stroke="#151515" stroke-width="16" stroke-linecap="round"/>
  <text x="128" y="336" fill="#151515" font-family="Arial, sans-serif" font-size="28" font-weight="700">80%</text>
  <text x="290" y="292" fill="#666D7B" font-family="Arial, sans-serif" font-size="20">Prioridades</text>
  <text x="290" y="332" fill="#151515" font-family="Arial, sans-serif" font-size="28" font-weight="700">Pecho · dorsal · tríceps</text>
  <text x="290" y="370" fill="#426CFF" font-family="Arial, sans-serif" font-size="22">RIR, rotaciones, cambios</text>
  <rect x="62" y="446" width="396" height="146" rx="34" fill="#FFFFFF" stroke="#E5E7EB" stroke-width="2"/>
  <text x="96" y="498" fill="#151515" font-family="Arial, sans-serif" font-size="30" font-weight="700">Día 1 · Upper A</text>
  <rect x="92" y="528" width="336" height="18" rx="9" fill="#F1F4FA"/>
  <rect x="92" y="560" width="286" height="18" rx="9" fill="#F1F4FA"/>
  <rect x="390" y="522" width="38" height="38" rx="19" fill="#151515"/>
  <text x="408" y="547" text-anchor="middle" fill="#FFFFFF" font-family="Arial, sans-serif" font-size="24" font-weight="700">↺</text>
  <rect x="62" y="616" width="396" height="146" rx="34" fill="#F9F9FC"/>
  <text x="96" y="668" fill="#151515" font-family="Arial, sans-serif" font-size="30" font-weight="700">Día 2 · Lower A</text>
  <rect x="92" y="698" width="336" height="18" rx="9" fill="#ECEEF6"/>
  <rect x="92" y="730" width="286" height="18" rx="9" fill="#ECEEF6"/>
  <rect x="390" y="692" width="38" height="38" rx="19" fill="#FFFFFF" stroke="#E5E7EB" stroke-width="2"/>
  <text x="408" y="717" text-anchor="middle" fill="#151515" font-family="Arial, sans-serif" font-size="24" font-weight="700">i</text>
  <rect x="52" y="840" width="200" height="82" rx="30" fill="#FFFFFF" stroke="#E5E7EB" stroke-width="2"/>
  <text x="152" y="892" text-anchor="middle" fill="#151515" font-family="Arial, sans-serif" font-size="28" font-weight="700">Modificar</text>
  <rect x="266" y="840" width="202" height="82" rx="30" fill="#151515"/>
  <text x="367" y="892" text-anchor="middle" fill="#FFFFFF" font-family="Arial, sans-serif" font-size="28" font-weight="700">Exportar</text>
</svg>
